<?xml version="1.0" encoding="UTF-8" standalone="no"?> <svg width="512" height="512" viewBox="0 0 512 512" fill="none" xmlns="http://www.w3.org/2000/svg">
<path d="M16.25 39.75V367.75H496.25V39.75H16.25ZM400.25 111.75C403.415 111.75 406.508 112.688 409.139 114.446C411.77 116.205 413.821 118.703 415.032 121.627C416.243 124.551 416.56 127.768 415.943 130.871C415.325 133.975 413.801 136.826 411.564 139.064C409.326 141.301 406.475 142.825 403.371 143.443C400.268 144.06 397.051 143.743 394.127 142.532C391.203 141.321 388.705 139.27 386.946 136.639C385.188 134.008 384.25 130.915 384.25 127.75C384.25 123.507 385.936 119.437 388.936 116.436C391.937 113.436 396.007 111.75 400.25 111.75V111.75ZM80.25 207.75C80.25 204.585 81.1884 201.492 82.9465 198.861C84.7046 196.23 87.2034 194.179 90.1271 192.968C93.0507 191.757 96.2677 191.44 99.3714 192.057C102.475 192.675 105.326 194.199 107.564 196.436C109.801 198.674 111.325 201.525 111.943 204.629C112.56 207.732 112.243 210.949 111.032 213.873C109.821 216.797 107.77 219.295 105.139 221.054C102.508 222.812 99.4145 223.75 96.25 223.75C92.0065 223.75 87.9369 222.064 84.9363 219.064C81.9357 216.063 80.25 211.993 80.25 207.75ZM112.25 303.75C109.085 303.75 105.992 302.812 103.361 301.054C100.73 299.295 98.6789 296.797 97.4679 293.873C96.2569 290.949 95.9401 287.732 96.5574 284.629C97.1748 281.525 98.6987 278.674 100.936 276.436C103.174 274.199 106.025 272.675 109.129 272.057C112.232 271.44 115.449 271.757 118.373 272.968C121.297 274.179 123.795 276.23 125.554 278.861C127.312 281.492 128.25 284.585 128.25 287.75C128.25 291.993 126.564 296.063 123.564 299.064C120.563 302.064 116.493 303.75 112.25 303.75ZM112.25 143.75C109.085 143.75 105.992 142.812 103.361 141.054C100.73 139.295 98.6789 136.797 97.4679 133.873C96.2569 130.949 95.9401 127.732 96.5574 124.629C97.1748 121.525 98.6987 118.674 100.936 116.436C103.174 114.199 106.025 112.675 109.129 112.057C112.232 111.44 115.449 111.757 118.373 112.968C121.297 114.179 123.795 116.23 125.554 118.861C127.312 121.492 128.25 124.585 128.25 127.75C128.25 131.993 126.564 136.063 123.564 139.064C120.563 142.064 116.493 143.75 112.25 143.75ZM344.25 223.75H318.23C316.736 229.545 314.43 235.1 311.38 240.25L329.79 258.66L307.16 281.29L288.75 262.88C283.6 265.93 278.045 268.236 272.25 269.73V295.75H240.25V269.73C234.455 268.236 228.9 265.93 223.75 262.88L205.34 281.29L182.71 258.66L201.12 240.25C198.07 235.1 195.764 229.545 194.27 223.75H168.25V191.75H194.27C195.764 185.955 198.07 180.4 201.12 175.25L182.71 156.84L205.34 134.21L223.75 152.62C228.9 149.57 234.455 147.264 240.25 145.77V119.75H272.25V145.77C278.045 147.264 283.6 149.57 288.75 152.62L307.16 134.21L329.79 156.84L311.38 175.25C314.43 180.4 316.736 185.955 318.23 191.75H344.25V223.75ZM400.25 303.75C397.085 303.75 393.992 302.812 391.361 301.054C388.73 299.295 386.679 296.797 385.468 293.873C384.257 290.949 383.94 287.732 384.557 284.629C385.175 281.525 386.699 278.674 388.936 276.436C391.174 274.199 394.025 272.675 397.129 272.057C400.232 271.44 403.449 271.757 406.373 272.968C409.297 274.179 411.795 276.23 413.554 278.861C415.312 281.492 416.25 284.585 416.25 287.75C416.25 291.993 414.564 296.063 411.564 299.064C408.563 302.064 404.493 303.75 400.25 303.75ZM416.25 223.75C413.085 223.75 409.992 222.812 407.361 221.054C404.73 219.295 402.679 216.797 401.468 213.873C400.257 210.949 399.94 207.732 400.557 204.629C401.175 201.525 402.699 198.674 404.936 196.436C407.174 194.199 410.025 192.675 413.129 192.057C416.232 191.44 419.449 191.757 422.373 192.968C425.297 194.179 427.795 196.23 429.554 198.861C431.312 201.492 432.25 204.585 432.25 207.75C432.25 211.993 430.564 216.063 427.564 219.064C424.563 222.064 420.493 223.75 416.25 223.75Z" fill="#57A4FF"/>
<path d="M320.25 407.75H192.25V447.75H320.25V407.75Z" fill="#57A4FF"/>
<path d="M496 32H16C13.8783 32 11.8434 32.8429 10.3431 34.3431C8.84285 35.8434 8 37.8783 8 40V408C8 410.122 8.84285 412.157 10.3431 413.657C11.8434 415.157 13.8783 416 16 416H184V440H160C158.321 440 156.684 440.528 155.322 441.51C153.96 442.492 152.941 443.877 152.41 445.47L144.41 469.47C144.009 470.673 143.9 471.953 144.091 473.206C144.282 474.46 144.768 475.649 145.51 476.678C146.251 477.706 147.226 478.544 148.354 479.121C149.483 479.699 150.732 480 152 480H360C361.268 480 362.517 479.699 363.646 479.121C364.774 478.544 365.749 477.706 366.49 476.678C367.232 475.649 367.718 474.46 367.909 473.206C368.1 471.953 367.991 470.673 367.59 469.47L359.59 445.47C359.059 443.877 358.04 442.492 356.678 441.51C355.316 440.528 353.679 440 352 440H328V416H496C498.122 416 500.157 415.157 501.657 413.657C503.157 412.157 504 410.122 504 408V40C504 37.8783 503.157 35.8434 501.657 34.3431C500.157 32.8429 498.122 32 496 32V32ZM346.23 456L348.9 464H163.1L165.77 456H346.23ZM200 440V416H312V440H200ZM488 400H24V376H488V400ZM488 360H24V48H488V360Z" fill="#004FAC"/>
<path d="M224 240C226.122 240 228.157 239.157 229.657 237.657C231.157 236.157 232 234.122 232 232V216H248V232C248 234.122 248.843 236.157 250.343 237.657C251.843 239.157 253.878 240 256 240C258.122 240 260.157 239.157 261.657 237.657C263.157 236.157 264 234.122 264 232V184C264 181.878 263.157 179.843 261.657 178.343C260.157 176.843 258.122 176 256 176H224C221.878 176 219.843 176.843 218.343 178.343C216.843 179.843 216 181.878 216 184V232C216 234.122 216.843 236.157 218.343 237.657C219.843 239.157 221.878 240 224 240ZM248 192V200H232V192H248Z" fill="#004FAC"/>
<path d="M288 240C290.122 240 292.157 239.157 293.657 237.657C295.157 236.157 296 234.122 296 232V184C296 181.878 295.157 179.843 293.657 178.343C292.157 176.843 290.122 176 288 176C285.878 176 283.843 176.843 282.343 178.343C280.843 179.843 280 181.878 280 184V232C280 234.122 280.843 236.157 282.343 237.657C283.843 239.157 285.878 240 288 240Z" fill="#004FAC"/>
<path d="M96 232C100.961 231.994 105.799 230.452 109.849 227.588C113.9 224.723 116.965 220.676 118.624 216H160V224C160 226.122 160.843 228.157 162.343 229.657C163.843 231.157 165.878 232 168 232H188.1C188.949 234.394 189.925 236.741 191.023 239.032L182.059 248H144C141.878 248 139.843 248.843 138.343 250.343C136.843 251.843 136 253.878 136 256V280H134.624C132.737 274.662 129.023 270.164 124.14 267.299C119.257 264.434 113.518 263.388 107.938 264.346C102.358 265.303 97.2963 268.202 93.6472 272.531C89.998 276.859 87.9966 282.339 87.9966 288C87.9966 293.661 89.998 299.141 93.6472 303.469C97.2963 307.798 102.358 310.697 107.938 311.654C113.518 312.612 119.257 311.566 124.14 308.701C129.023 305.836 132.737 301.338 134.624 296H144C146.122 296 148.157 295.157 149.657 293.657C151.157 292.157 152 290.122 152 288V264H176.289C176.451 264.195 176.621 264.386 176.804 264.569L199.431 287.2C200.931 288.7 202.966 289.543 205.087 289.543C207.209 289.543 209.244 288.7 210.744 287.2L224.968 272.978C227.259 274.075 229.606 275.051 232 275.9V296C232 298.122 232.843 300.157 234.343 301.657C235.843 303.157 237.878 304 240 304H272C274.122 304 276.157 303.157 277.657 301.657C279.157 300.157 280 298.122 280 296V275.9C282.394 275.051 284.741 274.075 287.032 272.977L301.256 287.2C302.756 288.7 304.791 289.543 306.913 289.543C309.034 289.543 311.069 288.7 312.569 287.2L335.2 264.569C335.383 264.386 335.553 264.195 335.715 264H360V288C360 290.122 360.843 292.157 362.343 293.657C363.843 295.157 365.878 296 368 296H377.376C379.263 301.338 382.977 305.836 387.86 308.701C392.743 311.566 398.482 312.612 404.062 311.654C409.642 310.697 414.704 307.798 418.353 303.469C422.002 299.141 424.003 293.661 424.003 288C424.003 282.339 422.002 276.859 418.353 272.531C414.704 268.202 409.642 265.303 404.062 264.346C398.482 263.388 392.743 264.434 387.86 267.299C382.977 270.164 379.263 274.662 377.376 280H376V256C376 253.878 375.157 251.843 373.657 250.343C372.157 248.843 370.122 248 368 248H329.941L320.974 239.032C322.073 236.741 323.05 234.394 323.9 232H344C346.122 232 348.157 231.157 349.657 229.657C351.157 228.157 352 226.122 352 224V216H393.376C395.263 221.338 398.977 225.836 403.86 228.701C408.743 231.566 414.482 232.612 420.062 231.654C425.642 230.697 430.704 227.798 434.353 223.469C438.002 219.141 440.003 213.661 440.003 208C440.003 202.339 438.002 196.859 434.353 192.531C430.704 188.202 425.642 185.303 420.062 184.346C414.482 183.388 408.743 184.434 403.86 187.299C398.977 190.164 395.263 194.662 393.376 200H352V192C352 189.878 351.157 187.843 349.657 186.343C348.157 184.843 346.122 184 344 184H323.9C323.052 181.606 322.076 179.258 320.977 176.968L329.941 168H368C370.122 168 372.157 167.157 373.657 165.657C375.157 164.157 376 162.122 376 160V136H377.376C379.263 141.338 382.977 145.836 387.86 148.701C392.743 151.566 398.482 152.612 404.062 151.654C409.642 150.697 414.704 147.798 418.353 143.469C422.002 139.141 424.003 133.662 424.003 128C424.003 122.339 422.002 116.859 418.353 112.531C414.704 108.202 409.642 105.303 404.062 104.346C398.482 103.388 392.743 104.434 387.86 107.299C382.977 110.164 379.263 114.662 377.376 120H368C365.878 120 363.843 120.843 362.343 122.343C360.843 123.843 360 125.878 360 128V152H335.711C335.549 151.805 335.379 151.614 335.196 151.431L312.569 128.8C311.069 127.3 309.034 126.457 306.913 126.457C304.791 126.457 302.756 127.3 301.256 128.8L287.032 143.022C284.742 141.923 282.394 140.948 280 140.1V120C280 117.878 279.157 115.843 277.657 114.343C276.157 112.843 274.122 112 272 112H240C237.878 112 235.843 112.843 234.343 114.343C232.843 115.843 232 117.878 232 120V140.1C229.606 140.948 227.258 141.924 224.968 143.023L210.744 128.8C209.244 127.3 207.209 126.457 205.087 126.457C202.966 126.457 200.931 127.3 199.431 128.8L176.8 151.431C176.617 151.614 176.447 151.805 176.285 152H152V128C152 125.878 151.157 123.843 149.657 122.343C148.157 120.843 146.122 120 144 120H134.624C132.737 114.662 129.023 110.164 124.14 107.299C119.257 104.434 113.518 103.388 107.938 104.346C102.358 105.303 97.2963 108.202 93.6472 112.531C89.998 116.859 87.9966 122.339 87.9966 128C87.9966 133.662 89.998 139.141 93.6472 143.469C97.2963 147.798 102.358 150.697 107.938 151.654C113.518 152.612 119.257 151.566 124.14 148.701C129.023 145.836 132.737 141.338 134.624 136H136V160C136 162.122 136.843 164.157 138.343 165.657C139.843 167.157 141.878 168 144 168H182.059L191.026 176.968C189.926 179.258 188.949 181.606 188.1 184H168C165.878 184 163.843 184.843 162.343 186.343C160.843 187.843 160 189.878 160 192V200H118.624C117.157 195.852 114.578 192.186 111.169 189.404C107.76 186.623 103.651 184.832 99.293 184.227C94.9346 183.623 90.4939 184.229 86.4564 185.978C82.4188 187.727 78.9398 190.552 76.3997 194.145C73.8595 197.738 72.356 201.96 72.0534 206.35C71.7508 210.739 72.6608 215.128 74.684 219.035C76.7072 222.943 79.7656 226.219 83.5249 228.505C87.2843 230.792 91.5999 232.001 96 232V232ZM112 296C110.418 296 108.871 295.531 107.555 294.652C106.24 293.773 105.214 292.523 104.609 291.061C104.003 289.6 103.845 287.991 104.154 286.439C104.462 284.887 105.224 283.462 106.343 282.343C107.462 281.224 108.887 280.462 110.439 280.154C111.991 279.845 113.6 280.003 115.061 280.609C116.523 281.214 117.773 282.24 118.652 283.555C119.531 284.871 120 286.418 120 288C119.998 290.121 119.154 292.154 117.654 293.654C116.154 295.154 114.121 295.998 112 296V296ZM400 280C401.582 280 403.129 280.469 404.445 281.348C405.76 282.227 406.786 283.477 407.391 284.939C407.997 286.4 408.155 288.009 407.846 289.561C407.538 291.113 406.776 292.538 405.657 293.657C404.538 294.776 403.113 295.538 401.561 295.846C400.009 296.155 398.4 295.997 396.939 295.391C395.477 294.786 394.227 293.76 393.348 292.445C392.469 291.129 392 289.582 392 288C392.002 285.879 392.846 283.846 394.346 282.346C395.846 280.846 397.879 280.002 400 280V280ZM416 200C417.582 200 419.129 200.469 420.445 201.348C421.76 202.227 422.786 203.477 423.391 204.939C423.997 206.4 424.155 208.009 423.846 209.561C423.538 211.113 422.776 212.538 421.657 213.657C420.538 214.776 419.113 215.538 417.561 215.846C416.009 216.155 414.4 215.997 412.939 215.391C411.477 214.786 410.227 213.76 409.348 212.445C408.469 211.129 408 209.582 408 208C408.002 205.879 408.846 203.846 410.346 202.346C411.846 200.846 413.879 200.002 416 200ZM400 120C401.582 120 403.129 120.469 404.445 121.348C405.76 122.227 406.786 123.477 407.391 124.939C407.997 126.4 408.155 128.009 407.846 129.561C407.538 131.113 406.776 132.538 405.657 133.657C404.538 134.776 403.113 135.538 401.561 135.846C400.009 136.155 398.4 135.997 396.939 135.391C395.477 134.786 394.227 133.76 393.348 132.445C392.469 131.129 392 129.582 392 128C392.002 125.879 392.846 123.846 394.346 122.346C395.846 120.846 397.879 120.002 400 120ZM112 136C110.418 136 108.871 135.531 107.555 134.652C106.24 133.773 105.214 132.523 104.609 131.061C104.003 129.6 103.845 127.991 104.154 126.439C104.462 124.887 105.224 123.462 106.343 122.343C107.462 121.224 108.887 120.462 110.439 120.154C111.991 119.845 113.6 120.003 115.061 120.609C116.523 121.214 117.773 122.24 118.652 123.555C119.531 124.871 120 126.418 120 128C119.998 130.121 119.154 132.154 117.654 133.654C116.154 135.154 114.121 135.998 112 136V136ZM176 200H194.017C195.792 200 197.516 199.41 198.919 198.322C200.322 197.235 201.323 195.712 201.765 193.993C203.073 188.927 205.091 184.071 207.759 179.569C208.662 178.041 209.031 176.256 208.808 174.495C208.585 172.735 207.783 171.098 206.528 169.843L193.774 157.088L205.088 145.774L217.843 158.528C219.098 159.783 220.735 160.585 222.495 160.808C224.256 161.031 226.041 160.662 227.569 159.759C232.071 157.091 236.927 155.073 241.993 153.765C243.712 153.323 245.235 152.322 246.322 150.919C247.41 149.516 248 147.792 248 146.017V128H264V146.017C264 147.792 264.59 149.516 265.678 150.919C266.765 152.322 268.288 153.323 270.007 153.765C275.073 155.073 279.929 157.091 284.431 159.759C285.959 160.662 287.744 161.031 289.505 160.808C291.265 160.585 292.902 159.783 294.157 158.528L306.912 145.774L318.226 157.088L305.472 169.843C304.217 171.098 303.415 172.735 303.192 174.495C302.969 176.256 303.338 178.041 304.241 179.569C306.909 184.071 308.927 188.927 310.235 193.993C310.677 195.712 311.678 197.235 313.081 198.322C314.484 199.41 316.208 200 317.983 200H336V216H317.983C316.208 216 314.484 216.59 313.081 217.678C311.678 218.765 310.677 220.288 310.235 222.007C308.926 227.073 306.908 231.93 304.241 236.432C303.339 237.96 302.97 239.745 303.193 241.505C303.415 243.266 304.217 244.902 305.472 246.157L318.226 258.912L306.912 270.226L294.157 257.472C292.902 256.217 291.266 255.415 289.505 255.193C287.745 254.97 285.96 255.339 284.432 256.241C279.93 258.908 275.073 260.926 270.007 262.235C268.288 262.677 266.765 263.678 265.678 265.081C264.59 266.484 264 268.208 264 269.983V288H248V269.983C248 268.208 247.41 266.484 246.322 265.081C245.235 263.678 243.712 262.677 241.993 262.235C236.927 260.926 232.07 258.908 227.568 256.241C226.04 255.339 224.255 254.97 222.495 255.193C220.734 255.415 219.098 256.217 217.843 257.472L205.088 270.226L193.774 258.912L206.528 246.157C207.783 244.902 208.585 243.266 208.807 241.505C209.03 239.745 208.661 237.96 207.759 236.432C205.092 231.93 203.074 227.073 201.765 222.007C201.323 220.288 200.322 218.765 198.919 217.678C197.516 216.59 195.792 216 194.017 216H176V200ZM96 200C97.5823 200 99.129 200.469 100.445 201.348C101.76 202.227 102.786 203.477 103.391 204.939C103.997 206.4 104.155 208.009 103.846 209.561C103.538 211.113 102.776 212.538 101.657 213.657C100.538 214.776 99.1126 215.538 97.5607 215.846C96.0089 216.155 94.4003 215.997 92.9385 215.391C91.4767 214.786 90.2273 213.76 89.3483 212.445C88.4692 211.129 88 209.582 88 208C88.0024 205.879 88.846 203.846 90.3458 202.346C91.8456 200.846 93.879 200.002 96 200V200Z" fill="#004FAC"/>
</svg>
