<?xml version="1.0" encoding="UTF-8" standalone="no"?> <svg width="64" height="64" viewBox="0 0 64 64" fill="none" xmlns="http://www.w3.org/2000/svg">
<path d="M50 9H14C12.3431 9 11 10.3431 11 12V58C11 59.6569 12.3431 61 14 61H50C51.6569 61 53 59.6569 53 58V12C53 10.3431 51.6569 9 50 9Z" fill="#A8DBA8"/>
<path d="M49 9H15V57H49V9Z" fill="white"/>
<path d="M49 41.33V49.32L47.73 51.52L44.87 54.48L43.13 53.48L44.27 49.52L49 41.33Z" fill="#CFF09E"/>
<path d="M49 48.7V57H15V9H20V11C20.001 19.6021 22.8452 27.9626 28.0899 34.7808C33.3347 41.599 40.686 46.4925 49 48.7V48.7Z" fill="#CFF09E"/>
<path d="M21 9H42V11C42 11.7956 41.6839 12.5587 41.1213 13.1213C40.5587 13.6839 39.7956 14 39 14H24C23.2044 14 22.4413 13.6839 21.8787 13.1213C21.3161 12.5587 21 11.7956 21 11V9Z" fill="#CFF09E"/>
<path d="M36 4.5C36 4.10218 35.842 3.72064 35.5607 3.43934C35.2794 3.15804 34.8978 3 34.5 3H29.5C29.1022 3 28.7206 3.15804 28.4393 3.43934C28.158 3.72064 28 4.10218 28 4.5V4.5C28 4.89782 27.842 5.27936 27.5607 5.56066C27.2794 5.84196 26.8978 6 26.5 6H24.5C24.1022 6 23.7206 6.15804 23.4393 6.43934C23.158 6.72064 23 7.10218 23 7.5V10.5C23 10.8978 23.158 11.2794 23.4393 11.5607C23.7206 11.842 24.1022 12 24.5 12H39.5C39.8978 12 40.2794 11.842 40.5607 11.5607C40.842 11.2794 41 10.8978 41 10.5V7.5C41 7.10218 40.842 6.72064 40.5607 6.43934C40.2794 6.15804 39.8978 6 39.5 6H37.5C37.1022 6 36.7206 5.84196 36.4393 5.56066C36.158 5.27936 36 4.89782 36 4.5Z" fill="#A8DBA8"/>
<path d="M36.586 45.531L32 48L27.414 45.531C24.8703 44.1612 22.7449 42.1282 21.2635 39.6478C19.782 37.1674 18.9999 34.3321 19 31.443V22C23.4821 21.9999 27.7807 20.2194 30.95 17.05L32 16L33.05 17.05C36.2193 20.2194 40.5179 21.9999 45 22V22V31.443C45.0001 34.3321 44.218 37.1674 42.7365 39.6478C41.2551 42.1282 39.1297 44.1612 36.586 45.531Z" fill="#79BD9A"/>
<path d="M29.311 42.009C27.402 40.983 25.807 39.4585 24.6957 37.5979C23.5844 35.7373 22.9983 33.6102 23 31.443V25.62C26.2919 24.9855 29.3804 23.561 32 21.469C34.6196 23.561 37.7081 24.9855 41 25.62V31.443C41.0015 33.6103 40.4155 35.7375 39.3042 37.5983C38.1929 39.459 36.5979 40.9836 34.689 42.01L32 43.457L29.311 42.009Z" fill="#A8DBA8"/>
<path d="M37 30H34V27H30V30H27V34H30V37H34V34H37V30Z" fill="#CFF09E"/>
<path d="M47.7312 48.5161L44.2671 46.5161L57.2671 23.9995C57.5323 23.5401 57.9692 23.2049 58.4815 23.0676C58.9939 22.9303 59.5398 23.0022 59.9992 23.2674C60.4585 23.5326 60.7937 23.9695 60.931 24.4818C61.0683 24.9942 60.9964 25.5401 60.7312 25.9995L47.7312 48.5161Z" fill="#79BD9A"/>
<path d="M44.268 46.517L47.732 48.517L44.866 51.481L43.134 50.481L44.268 46.517Z" fill="#79BD9A"/>
<path d="M19 50H23C23.2652 50 23.5196 49.8946 23.7071 49.7071C23.8946 49.5196 24 49.2652 24 49C24 48.7348 23.8946 48.4804 23.7071 48.2929C23.5196 48.1054 23.2652 48 23 48H19C18.7348 48 18.4804 48.1054 18.2929 48.2929C18.1054 48.4804 18 48.7348 18 49C18 49.2652 18.1054 49.5196 18.2929 49.7071C18.4804 49.8946 18.7348 50 19 50Z" fill="#3B8686"/>
<path d="M19 54H21C21.2652 54 21.5196 53.8946 21.7071 53.7071C21.8946 53.5196 22 53.2652 22 53C22 52.7348 21.8946 52.4804 21.7071 52.2929C21.5196 52.1054 21.2652 52 21 52H19C18.7348 52 18.4804 52.1054 18.2929 52.2929C18.1054 52.4804 18 52.7348 18 53C18 53.2652 18.1054 53.5196 18.2929 53.7071C18.4804 53.8946 18.7348 54 19 54Z" fill="#3B8686"/>
<path d="M41 18H45C45.2652 18 45.5196 17.8946 45.7071 17.7071C45.8946 17.5196 46 17.2652 46 17C46 16.7348 45.8946 16.4804 45.7071 16.2929C45.5196 16.1054 45.2652 16 45 16H41C40.7348 16 40.4804 16.1054 40.2929 16.2929C40.1054 16.4804 40 16.7348 40 17C40 17.2652 40.1054 17.5196 40.2929 17.7071C40.4804 17.8946 40.7348 18 41 18Z" fill="#3B8686"/>
<path d="M19 18H22C22.2652 18 22.5196 17.8946 22.7071 17.7071C22.8946 17.5196 23 17.2652 23 17C23 16.7348 22.8946 16.4804 22.7071 16.2929C22.5196 16.1054 22.2652 16 22 16H19C18.7348 16 18.4804 16.1054 18.2929 16.2929C18.1054 16.4804 18 16.7348 18 17C18 17.2652 18.1054 17.5196 18.2929 17.7071C18.4804 17.8946 18.7348 18 19 18Z" fill="#3B8686"/>
<path d="M26.94 46.412L31.526 48.881C31.6717 48.9594 31.8345 49.0005 32 49.0005C32.1655 49.0005 32.3283 48.9594 32.474 48.881L37.06 46.412C39.764 44.958 42.0233 42.7982 43.5976 40.1623C45.1718 37.5265 46.002 34.5132 46 31.443V22C46 21.7348 45.8946 21.4804 45.7071 21.2929C45.5196 21.1054 45.2652 21 45 21C42.9112 21.0055 40.842 20.5967 38.9122 19.7974C36.9823 18.998 35.2302 17.8239 33.757 16.343L32.707 15.293C32.5195 15.1055 32.2652 15.0002 32 15.0002C31.7348 15.0002 31.4805 15.1055 31.293 15.293L30.243 16.343C28.7698 17.8239 27.0177 18.998 25.0878 19.7974C23.158 20.5967 21.0888 21.0055 19 21C18.7348 21 18.4804 21.1054 18.2929 21.2929C18.1054 21.4804 18 21.7348 18 22V31.443C17.9978 34.5132 18.8281 37.5265 20.4023 40.1624C21.9765 42.7983 24.2359 44.9581 26.94 46.412V46.412ZM20 22.973C24.3976 22.7383 28.5516 20.8796 31.657 17.757L32 17.414L32.343 17.757C35.4484 20.8796 39.6024 22.7383 44 22.973V31.443C44.0023 34.1519 43.27 36.8108 41.8809 39.1364C40.4919 41.4621 38.4982 43.3676 36.112 44.65L32 46.864L27.889 44.65C25.5026 43.3678 23.5086 41.4624 22.1194 39.1367C20.7301 36.811 19.9977 34.152 20 31.443V22.973Z" fill="#3B8686"/>
<path d="M28.837 42.89L31.526 44.338C31.6717 44.4164 31.8346 44.4575 32 44.4575C32.1655 44.4575 32.3283 44.4164 32.474 44.338L35.164 42.891C37.2318 41.7789 38.9595 40.127 40.1632 38.1112C41.3669 36.0953 42.0017 33.7909 42 31.443V25.62C41.9998 25.3877 41.9187 25.1628 41.7707 24.9838C41.6227 24.8048 41.4171 24.6829 41.189 24.639C38.0573 24.0301 35.1187 22.6744 32.623 20.687C32.446 20.546 32.2263 20.4692 32 20.4692C31.7737 20.4692 31.554 20.546 31.377 20.687C28.8813 22.6744 25.9427 24.0301 22.811 24.639C22.5829 24.6829 22.3773 24.8048 22.2293 24.9838C22.0813 25.1628 22.0002 25.3877 22 25.62V31.443C21.998 33.7909 22.6328 36.0954 23.8368 38.1112C25.0407 40.127 26.7688 41.7785 28.837 42.89V42.89ZM24 26.43C26.8902 25.7525 29.6121 24.4935 32 22.73C34.3879 24.4935 37.1098 25.7525 40 26.43V31.443C40.0014 33.4295 39.4643 35.3793 38.4458 37.0849C37.4273 38.7905 35.9656 40.1881 34.216 41.129L32 42.321L29.785 41.128C28.0353 40.1874 26.5733 38.7901 25.5546 37.0847C24.5359 35.3792 23.9986 33.4295 24 31.443V26.43Z" fill="#3B8686"/>
<path d="M29 37C29 37.2652 29.1054 37.5196 29.2929 37.7071C29.4804 37.8946 29.7348 38 30 38H34C34.2652 38 34.5196 37.8946 34.7071 37.7071C34.8946 37.5196 35 37.2652 35 37V35H37C37.2652 35 37.5196 34.8946 37.7071 34.7071C37.8946 34.5196 38 34.2652 38 34V30C38 29.7348 37.8946 29.4804 37.7071 29.2929C37.5196 29.1054 37.2652 29 37 29H35V27C35 26.7348 34.8946 26.4804 34.7071 26.2929C34.5196 26.1054 34.2652 26 34 26H30C29.7348 26 29.4804 26.1054 29.2929 26.2929C29.1054 26.4804 29 26.7348 29 27V29H27C26.7348 29 26.4804 29.1054 26.2929 29.2929C26.1054 29.4804 26 29.7348 26 30V34C26 34.2652 26.1054 34.5196 26.2929 34.7071C26.4804 34.8946 26.7348 35 27 35H29V37ZM28 33V31H30C30.2652 31 30.5196 30.8946 30.7071 30.7071C30.8946 30.5196 31 30.2652 31 30V28H33V30C33 30.2652 33.1054 30.5196 33.2929 30.7071C33.4804 30.8946 33.7348 31 34 31H36V33H34C33.7348 33 33.4804 33.1054 33.2929 33.2929C33.1054 33.4804 33 33.7348 33 34V36H31V34C31 33.7348 30.8946 33.4804 30.7071 33.2929C30.5196 33.1054 30.2652 33 30 33H28Z" fill="#3B8686"/>
<path d="M61.9 24.224C61.7472 23.6497 61.4273 23.1337 60.9809 22.7415C60.5344 22.3492 59.9815 22.0984 59.3924 22.0209C58.8032 21.9433 58.2042 22.0425 57.6715 22.3058C57.1387 22.5692 56.6962 22.9848 56.4 23.5L54 27.659V12C54 10.9391 53.5786 9.92172 52.8284 9.17157C52.0783 8.42143 51.0609 8 50 8H42V7.5C42 6.83696 41.7366 6.20107 41.2678 5.73223C40.7989 5.26339 40.163 5 39.5 5H37.5C37.3674 5 37.2402 4.94732 37.1464 4.85355C37.0527 4.75979 37 4.63261 37 4.5C37 3.83696 36.7366 3.20107 36.2678 2.73223C35.7989 2.26339 35.163 2 34.5 2H29.5C28.837 2 28.2011 2.26339 27.7322 2.73223C27.2634 3.20107 27 3.83696 27 4.5C27 4.63261 26.9473 4.75979 26.8536 4.85355C26.7598 4.94732 26.6326 5 26.5 5H24.5C23.837 5 23.2011 5.26339 22.7322 5.73223C22.2634 6.20107 22 6.83696 22 7.5V8H14C12.9391 8 11.9217 8.42143 11.1716 9.17157C10.4214 9.92172 10 10.9391 10 12V58C10 59.0609 10.4214 60.0783 11.1716 60.8284C11.9217 61.5786 12.9391 62 14 62H50C51.0609 62 52.0783 61.5786 52.8284 60.8284C53.5786 60.0783 54 59.0609 54 58V39.66L61.6 26.5C61.7977 26.1592 61.926 25.7826 61.9775 25.392C62.029 25.0014 62.0026 24.6044 61.9 24.224V24.224ZM44.692 50.224L44.313 50.005L44.88 48.022L46.125 48.741L44.692 50.224ZM47.368 47.149L45.637 46.149L55.637 28.829L57.368 29.829L47.368 47.149ZM52 12V31.123L50 34.587V10C50.5304 10 51.0391 10.2107 51.4142 10.5858C51.7893 10.9609 52 11.4696 52 12ZM24 7.5C24 7.36739 24.0527 7.24021 24.1464 7.14645C24.2402 7.05268 24.3674 7 24.5 7H26.5C26.8283 7 27.1534 6.93534 27.4567 6.8097C27.76 6.68406 28.0356 6.49991 28.2678 6.26777C28.4999 6.03562 28.6841 5.76002 28.8097 5.45671C28.9353 5.15339 29 4.8283 29 4.5C29 4.36739 29.0527 4.24021 29.1464 4.14645C29.2402 4.05268 29.3674 4 29.5 4H34.5C34.6326 4 34.7598 4.05268 34.8536 4.14645C34.9473 4.24021 35 4.36739 35 4.5C35 5.16304 35.2634 5.79893 35.7322 6.26777C36.2011 6.73661 36.837 7 37.5 7H39.5C39.6326 7 39.7598 7.05268 39.8536 7.14645C39.9473 7.24021 40 7.36739 40 7.5V10.5C40 10.6326 39.9473 10.7598 39.8536 10.8536C39.7598 10.9473 39.6326 11 39.5 11H24.5C24.3674 11 24.2402 10.9473 24.1464 10.8536C24.0527 10.7598 24 10.6326 24 10.5V7.5ZM22 10V10.5C22 11.163 22.2634 11.7989 22.7322 12.2678C23.2011 12.7366 23.837 13 24.5 13H39.5C40.163 13 40.7989 12.7366 41.2678 12.2678C41.7366 11.7989 42 11.163 42 10.5V10H48V38.052L43.4 46.017C43.3574 46.0872 43.3238 46.1624 43.3 46.241L42.166 50.206C42.1045 50.4206 42.1165 50.6496 42.2003 50.8566C42.284 51.0635 42.4346 51.2365 42.628 51.348L41.628 53.079C41.5613 53.1928 41.5178 53.3186 41.4999 53.4493C41.482 53.5799 41.4902 53.7128 41.5239 53.8403C41.5576 53.9678 41.6162 54.0874 41.6963 54.1922C41.7764 54.2969 41.8765 54.3848 41.9907 54.4508C42.1049 54.5167 42.231 54.5594 42.3618 54.5764C42.4926 54.5934 42.6254 54.5844 42.7527 54.5498C42.88 54.5153 42.9991 54.4559 43.1034 54.3751C43.2076 54.2943 43.2948 54.1936 43.36 54.079L44.36 52.348C44.5531 52.4593 44.7777 52.5029 44.9984 52.4719C45.2191 52.4409 45.423 52.3371 45.578 52.177L48 49.678V56H16V10H22ZM52 58C52 58.5304 51.7893 59.0391 51.4142 59.4142C51.0391 59.7893 50.5304 60 50 60H14C13.4696 60 12.9609 59.7893 12.5858 59.4142C12.2107 59.0391 12 58.5304 12 58V12C12 11.4696 12.2107 10.9609 12.5858 10.5858C12.9609 10.2107 13.4696 10 14 10V57C14 57.2652 14.1054 57.5196 14.2929 57.7071C14.4804 57.8946 14.7348 58 15 58H49C49.2652 58 49.5196 57.8946 49.7071 57.7071C49.8946 57.5196 50 57.2652 50 57V46.588L52 43.124V58ZM59.865 25.5L58.365 28.1L56.634 27.1L58.134 24.5C58.1974 24.3821 58.2839 24.2782 58.3882 24.1943C58.4926 24.1105 58.6127 24.0485 58.7415 24.0119C58.8703 23.9753 59.0051 23.965 59.1379 23.9815C59.2707 23.998 59.3989 24.041 59.5148 24.108C59.6307 24.1749 59.732 24.2645 59.8127 24.3713C59.8933 24.4782 59.9517 24.6001 59.9844 24.7299C60.017 24.8597 60.0233 24.9948 60.0028 25.1271C59.9823 25.2593 59.9354 25.3862 59.865 25.5Z" fill="#3B8686"/>
</svg>
