<?xml version="1.0" encoding="UTF-8"?>
<svg id="Layer_1" data-name="Layer 1" xmlns="http://www.w3.org/2000/svg" viewBox="0 0 48 48">
  <path d="M41.343,44H6.657c-1.809,0-3.428-.935-4.331-2.5-.902-1.564-.902-3.431,0-4.994L19.67,6.498c.904-1.564,2.522-2.498,4.33-2.498s3.426.934,4.33,2.498l17.343,30.007c.903,1.564.903,3.431,0,4.995-.903,1.565-2.522,2.5-4.331,2.5Z" fill="#ffa221" stroke-width="0"/>
  <path d="M43.874,33.393c-3.265,1.663-6.958,2.607-10.874,2.607-9.864,0-18.334-5.952-22.024-14.459l-8.649,14.965c-.903,1.563-.903,3.43,0,4.994.903,1.565,2.522,2.5,4.331,2.5h34.686c1.809,0,3.428-.935,4.331-2.5.902-1.564.902-3.431,0-4.995l-1.799-3.112Z" fill="#ff8200" stroke-width="0"/>
  <path d="M6.657,41c-.724,0-1.371-.374-1.732-1-.36-.625-.36-1.37,0-1.994L22.269,7.999c.361-.625,1.008-.999,1.731-.999s1.37.374,1.731.999l17.343,30.008c.361.624.361,1.37,0,1.994-.361.626-1.009,1-1.732,1H6.657Z" fill="#ffc343" stroke-width="0"/>
  <path d="M41.095,34.582c-2.53.911-5.251,1.418-8.095,1.418-8.602,0-16.125-4.54-20.36-11.342l-7.715,13.349c-.36.624-.36,1.369,0,1.994.361.626,1.009,1,1.732,1h34.686c.724,0,1.371-.374,1.732-1,.36-.625.36-1.37,0-1.994l-1.979-3.425Z" fill="#ffa221" stroke-width="0"/>
  <circle cx="24" cy="35.5" r="2.5" fill="#555e77" stroke-width="0"/>
  <path d="M25.436,15h-2.871c-.577,0-1.034.487-.998,1.062l.875,14c.033.527.47.938.998.938h1.121c.528,0,.965-.411.998-.938l.875-14c.036-.576-.421-1.062-.998-1.062Z" fill="#555e77" stroke-width="0"/>
  <path d="M24,38c1.381,0,2.5-1.119,2.5-2.5,0-.142-.019-.279-.042-.415-1.39-.395-2.731-.906-4.006-1.534-.576.458-.952,1.156-.952,1.949,0,1.381,1.119,2.5,2.5,2.5Z" fill="#424c63" stroke-width="0"/>
</svg>