<?xml version="1.0" encoding="UTF-8" standalone="no"?> <svg width="64" height="64" viewBox="0 0 64 64" fill="none" xmlns="http://www.w3.org/2000/svg">
<path d="M33 37H9C7.4087 37 5.88258 37.6321 4.75736 38.7574C3.63214 39.8826 3 41.4087 3 43V47H9L13 52H29L33 47H39V43C39 41.4087 38.3679 39.8826 37.2426 38.7574C36.1174 37.6321 34.5913 37 33 37Z" fill="white"/>
<path d="M12.8 40.325L10.429 37H9C7.4087 37 5.88258 37.6321 4.75736 38.7574C3.63214 39.8826 3 41.4087 3 43V47H9L13 52H29L33 47H39V43C38.998 42.6647 38.9679 42.3302 38.91 42H16.058C15.4208 42.0005 14.7927 41.8487 14.226 41.5574C13.6593 41.266 13.1704 40.8435 12.8 40.325V40.325Z" fill="#CFF09E"/>
<path d="M15 29V37L17 40H25L27 37V29H15Z" fill="white"/>
<path d="M27 32.95C24.8197 34.8975 22.0034 35.982 19.08 36C20.934 37.6385 23.2503 38.6622 25.71 38.93L25 40H17L15 37V29H27V32.95Z" fill="#CFF09E"/>
<path d="M21 3C17.8174 3 14.7652 4.26428 12.5147 6.51472C10.2643 8.76516 9 11.8174 9 15V22C9 25.1826 10.2643 28.2348 12.5147 30.4853C14.7652 32.7357 17.8174 34 21 34C24.1826 34 27.2348 32.7357 29.4853 30.4853C31.7357 28.2348 33 25.1826 33 22V15C33 11.8174 31.7357 8.76516 29.4853 6.51472C27.2348 4.26428 24.1826 3 21 3V3Z" fill="white"/>
<path d="M29.16 30.8C27.4479 32.3878 25.3098 33.4416 23.0076 33.8323C20.7055 34.223 18.3394 33.9335 16.1993 32.9993C14.0593 32.0652 12.2383 30.527 10.9595 28.5732C9.6807 26.6194 8.99972 24.335 9 22V15C8.99859 12.1921 9.98285 9.47284 11.7811 7.31637C13.5794 5.15991 16.0776 3.70309 18.84 3.19998C17.6271 4.32227 16.6598 5.68354 15.9989 7.19806C15.338 8.71258 14.9979 10.3475 15 12V19C15 22.1826 16.2643 25.2348 18.5147 27.4853C20.7652 29.7357 23.8174 31 27 31C27.7246 30.9997 28.4477 30.9328 29.16 30.8V30.8Z" fill="#CFF09E"/>
<path d="M27 20C28.1046 20 29 19.1046 29 18C29 16.8954 28.1046 16 27 16C25.8954 16 25 16.8954 25 18C25 19.1046 25.8954 20 27 20Z" fill="#79BD9A"/>
<path d="M37 15H33V21H37V15Z" fill="#A8DBA8"/>
<path d="M15 20C16.1046 20 17 19.1046 17 18C17 16.8954 16.1046 16 15 16C13.8954 16 13 16.8954 13 18C13 19.1046 13.8954 20 15 20Z" fill="#79BD9A"/>
<path d="M17 28V33.31C19.5873 34.23 22.4127 34.23 25 33.31V28H17Z" fill="#79BD9A"/>
<path d="M5 21H9V15H5L5 21Z" fill="#A8DBA8"/>
<path d="M28 44H14V48H28V44Z" fill="#A8DBA8"/>
<path d="M30.5 7.66L28 11H14L11.5 7.66C12.6226 6.2095 14.0625 5.03533 15.7092 4.22752C17.356 3.4197 19.1658 2.99969 21 2.99969C22.8342 2.99969 24.644 3.4197 26.2908 4.22752C27.9375 5.03533 29.3774 6.2095 30.5 7.66V7.66Z" fill="#A8DBA8"/>
<path d="M5 61C6.10457 61 7 60.1046 7 59C7 57.8954 6.10457 57 5 57C3.89543 57 3 57.8954 3 59C3 60.1046 3.89543 61 5 61Z" fill="#A8DBA8"/>
<path d="M21 61C22.1046 61 23 60.1046 23 59C23 57.8954 22.1046 57 21 57C19.8954 57 19 57.8954 19 59C19 60.1046 19.8954 61 21 61Z" fill="#A8DBA8"/>
<path d="M49 26.265L47.544 24.809C46.3856 23.6508 44.8146 23.0001 43.1765 23.0001C41.5384 23.0001 39.9674 23.6508 38.809 24.809V24.809C37.6508 25.9674 37.0001 27.5384 37.0001 29.1765C37.0001 30.8146 37.6508 32.3856 38.809 33.544L49 43.735L59.191 33.544C60.3493 32.3856 60.9999 30.8146 60.9999 29.1765C60.9999 27.5384 60.3493 25.9674 59.191 24.809C58.0326 23.6508 56.4616 23.0001 54.8235 23.0001C53.1854 23.0001 51.6144 23.6508 50.456 24.809L49 26.265Z" fill="#A8DBA8"/>
<path d="M49 55C50.1046 55 51 54.1046 51 53C51 51.8954 50.1046 51 49 51C47.8954 51 47 51.8954 47 53C47 54.1046 47.8954 55 49 55Z" fill="#A8DBA8"/>
<path d="M29 45C30.1046 45 31 44.1046 31 43C31 41.8954 30.1046 41 29 41C27.8954 41 27 41.8954 27 43C27 44.1046 27.8954 45 29 45Z" fill="#A8DBA8"/>
<path d="M58 61C59.1046 61 60 60.1046 60 59C60 57.8954 59.1046 57 58 57C56.8954 57 56 57.8954 56 59C56 60.1046 56.8954 61 58 61Z" fill="#A8DBA8"/>
<path d="M46 3H42V7H46V3Z" fill="white"/>
<path d="M50 3H46V7H50V3Z" fill="white"/>
<path d="M54 3H50V7H54V3Z" fill="white"/>
<path d="M58 3H54V7H58V3Z" fill="white"/>
<path d="M50 7H46V3L50 7Z" fill="#CFF09E"/>
<path d="M46 7H42V3L46 7Z" fill="#CFF09E"/>
<path d="M58 7H54V3L58 7Z" fill="#CFF09E"/>
<path d="M54 7H50V3L54 7Z" fill="#CFF09E"/>
<path d="M27 21C27.5933 21 28.1734 20.8241 28.6667 20.4944C29.1601 20.1648 29.5446 19.6962 29.7716 19.1481C29.9987 18.5999 30.0581 17.9967 29.9424 17.4147C29.8266 16.8328 29.5409 16.2982 29.1213 15.8787C28.7018 15.4591 28.1672 15.1734 27.5853 15.0576C27.0033 14.9419 26.4001 15.0013 25.8519 15.2284C25.3038 15.4554 24.8352 15.8399 24.5056 16.3333C24.1759 16.8266 24 17.4067 24 18C24 18.7957 24.3161 19.5587 24.8787 20.1213C25.4413 20.6839 26.2044 21 27 21ZM27 17C27.1978 17 27.3911 17.0586 27.5556 17.1685C27.72 17.2784 27.8482 17.4346 27.9239 17.6173C27.9996 17.8 28.0194 18.0011 27.9808 18.1951C27.9422 18.3891 27.847 18.5673 27.7071 18.7071C27.5673 18.847 27.3891 18.9422 27.1951 18.9808C27.0011 19.0194 26.8 18.9996 26.6173 18.9239C26.4346 18.8482 26.2784 18.72 26.1685 18.5556C26.0586 18.3911 26 18.1978 26 18C26 17.7348 26.1054 17.4804 26.2929 17.2929C26.4804 17.1054 26.7348 17 27 17Z" fill="#3B8686"/>
<path d="M25 8C25.5523 8 26 7.55228 26 7C26 6.44772 25.5523 6 25 6C24.4477 6 24 6.44772 24 7C24 7.55228 24.4477 8 25 8Z" fill="#3B8686"/>
<path d="M23 25C23.5523 25 24 24.5523 24 24C24 23.4477 23.5523 23 23 23C22.4477 23 22 23.4477 22 24C22 24.5523 22.4477 25 23 25Z" fill="#3B8686"/>
<path d="M18 18C18 17.4067 17.8241 16.8266 17.4944 16.3333C17.1648 15.8399 16.6962 15.4554 16.1481 15.2284C15.5999 15.0013 14.9967 14.9419 14.4147 15.0576C13.8328 15.1734 13.2982 15.4591 12.8787 15.8787C12.4591 16.2982 12.1734 16.8328 12.0576 17.4147C11.9419 17.9967 12.0013 18.5999 12.2284 19.1481C12.4554 19.6962 12.8399 20.1648 13.3333 20.4944C13.8266 20.8241 14.4067 21 15 21C15.7957 21 16.5587 20.6839 17.1213 20.1213C17.6839 19.5587 18 18.7957 18 18ZM15 19C14.8022 19 14.6089 18.9414 14.4444 18.8315C14.28 18.7216 14.1518 18.5654 14.0761 18.3827C14.0004 18.2 13.9806 17.9989 14.0192 17.8049C14.0578 17.6109 14.153 17.4327 14.2929 17.2929C14.4327 17.153 14.6109 17.0578 14.8049 17.0192C14.9989 16.9806 15.2 17.0004 15.3827 17.0761C15.5654 17.1518 15.7216 17.28 15.8315 17.4444C15.9414 17.6089 16 17.8022 16 18C16 18.2652 15.8946 18.5196 15.7071 18.7071C15.5196 18.8946 15.2652 19 15 19Z" fill="#3B8686"/>
<path d="M17 8C17.5523 8 18 7.55228 18 7C18 6.44772 17.5523 6 17 6C16.4477 6 16 6.44772 16 7C16 7.55228 16.4477 8 17 8Z" fill="#3B8686"/>
<path d="M19 25C19.5523 25 20 24.5523 20 24C20 23.4477 19.5523 23 19 23C18.4477 23 18 23.4477 18 24C18 24.5523 18.4477 25 19 25Z" fill="#3B8686"/>
<path d="M21 21C21.2652 21 21.5196 20.8946 21.7071 20.7071C21.8946 20.5196 22 20.2652 22 20V17C22 16.7348 21.8946 16.4804 21.7071 16.2929C21.5196 16.1054 21.2652 16 21 16C20.7348 16 20.4804 16.1054 20.2929 16.2929C20.1054 16.4804 20 16.7348 20 17V20C20 20.2652 20.1054 20.5196 20.2929 20.7071C20.4804 20.8946 20.7348 21 21 21Z" fill="#3B8686"/>
<path d="M50 35V31C50 30.2044 49.6839 29.4413 49.1213 28.8787C48.5587 28.3161 47.7956 28 47 28C46.2044 28 45.4413 28.3161 44.8787 28.8787C44.3161 29.4413 44 30.2044 44 31V35C44 35.2652 44.1054 35.5196 44.2929 35.7071C44.4804 35.8946 44.7348 36 45 36C45.2652 36 45.5196 35.8946 45.7071 35.7071C45.8946 35.5196 46 35.2652 46 35V34H48V35C48 35.2652 48.1054 35.5196 48.2929 35.7071C48.4804 35.8946 48.7348 36 49 36C49.2652 36 49.5196 35.8946 49.7071 35.7071C49.8946 35.5196 50 35.2652 50 35ZM46 32V31C46 30.7348 46.1054 30.4804 46.2929 30.2929C46.4804 30.1054 46.7348 30 47 30C47.2652 30 47.5196 30.1054 47.7071 30.2929C47.8946 30.4804 48 30.7348 48 31V32H46Z" fill="#3B8686"/>
<path d="M53 36C53.2652 36 53.5196 35.8946 53.7071 35.7071C53.8946 35.5196 54 35.2652 54 35V29C54 28.7348 53.8946 28.4804 53.7071 28.2929C53.5196 28.1054 53.2652 28 53 28C52.7348 28 52.4804 28.1054 52.2929 28.2929C52.1054 28.4804 52 28.7348 52 29V35C52 35.2652 52.1054 35.5196 52.2929 35.7071C52.4804 35.8946 52.7348 36 53 36Z" fill="#3B8686"/>
<path d="M58.965 56.173C58.9823 56.1166 58.994 56.0587 59 56V41C59.001 40.8133 58.9497 40.6301 58.852 40.471C58.7543 40.312 58.614 40.1834 58.447 40.1L55.511 38.633L59.9 34.251C60.5665 33.5845 61.0952 32.7932 61.4559 31.9223C61.8167 31.0515 62.0023 30.1181 62.0023 29.1755C62.0023 28.2329 61.8167 27.2995 61.4559 26.4286C61.0952 25.5578 60.5665 24.7665 59.9 24.1C59.2335 23.4335 58.4422 22.9047 57.5713 22.544C56.7005 22.1833 55.7671 21.9976 54.8245 21.9976C53.8819 21.9976 52.9485 22.1833 52.0776 22.544C51.2068 22.9047 50.4155 23.4335 49.749 24.1L49 24.851L48.251 24.103C46.9053 22.7569 45.0799 22.0005 43.1765 22.0002C41.2731 21.9999 39.4476 22.7558 38.1015 24.1015C36.7554 25.4472 35.999 27.2725 35.9987 29.1759C35.9986 30.1184 36.184 31.0517 36.5446 31.9224C36.9051 32.7932 37.4336 33.5845 38.1 34.251L43.816 39.968L42.465 42H39.92C39.6785 40.3359 38.8466 38.8142 37.5762 37.7126C36.3057 36.6111 34.6815 36.0032 33 36H28V32.937C29.8374 31.7638 31.35 30.147 32.3985 28.2357C33.4471 26.3244 33.9978 24.18 34 22H37C37.2652 22 37.5195 21.8946 37.7071 21.7071C37.8946 21.5196 38 21.2652 38 21V15C38 14.7348 37.8946 14.4804 37.7071 14.2929C37.5195 14.1053 37.2652 14 37 14H33.949C33.702 10.7345 32.2304 7.68294 29.829 5.45636C27.4277 3.22979 24.2738 1.99261 20.999 1.99261C17.7242 1.99261 14.5703 3.22979 12.1689 5.45636C9.76755 7.68294 8.296 10.7345 8.04897 14H4.99997C4.73476 14 4.4804 14.1053 4.29287 14.2929C4.10533 14.4804 3.99997 14.7348 3.99997 15V21C3.99997 21.2652 4.10533 21.5196 4.29287 21.7071C4.4804 21.8946 4.73476 22 4.99997 22H7.99997C8.00217 24.18 8.55289 26.3244 9.60143 28.2357C10.65 30.147 12.1626 31.7638 14 32.937V36H8.99997C7.14411 36.0021 5.36486 36.7403 4.05257 38.0526C2.74027 39.3649 2.00209 41.1441 1.99997 43V47C1.99997 47.2652 2.10533 47.5196 2.29287 47.7071C2.4804 47.8946 2.73476 48 2.99997 48H7.52297L6.32297 51H2.99997C2.73476 51 2.4804 51.1053 2.29287 51.2929C2.10533 51.4804 1.99997 51.7348 1.99997 52C1.99997 52.2652 2.10533 52.5196 2.29287 52.7071C2.4804 52.8946 2.73476 53 2.99997 53H6.99997C7.19997 53.0001 7.39539 52.9402 7.56099 52.828C7.7266 52.7159 7.85478 52.5567 7.92897 52.371L9.29097 48.965L12.219 52.625C12.3127 52.7421 12.4316 52.8365 12.5668 52.9015C12.7019 52.9664 12.85 53 13 53H14V56.219L7.73797 57.785C7.45454 57.1346 6.95064 56.6052 6.31507 56.29C5.67951 55.9747 4.95307 55.894 4.26379 56.0619C3.57451 56.2299 2.96663 56.6357 2.54729 57.208C2.12794 57.7802 1.92405 58.4821 1.97154 59.1899C2.01904 59.8978 2.31487 60.5662 2.80689 61.0773C3.29892 61.5884 3.95557 61.9094 4.66111 61.9837C5.36664 62.0581 6.07578 61.881 6.66354 61.4837C7.25131 61.0864 7.67997 60.4944 7.87397 59.812L15.243 57.97C15.4592 57.9158 15.6512 57.7909 15.7883 57.6152C15.9255 57.4395 16 57.2229 16 57V53H20V56.184C19.3328 56.4199 18.7704 56.8841 18.4123 57.4945C18.0543 58.1049 17.9235 58.8222 18.0432 59.5197C18.1628 60.2172 18.5252 60.85 19.0663 61.3061C19.6074 61.7622 20.2923 62.0124 21 62.0124C21.7077 62.0124 22.3926 61.7622 22.9336 61.3061C23.4747 60.85 23.8371 60.2172 23.9568 59.5197C24.0764 58.8222 23.9457 58.1049 23.5876 57.4945C23.2295 56.8841 22.6672 56.4199 22 56.184V53H24.685L34.427 59.819C34.5949 59.9366 34.7949 59.9998 35 60H55.184C55.3521 60.4791 55.6393 60.9075 56.0186 61.245C56.3979 61.5825 56.8569 61.8179 57.3523 61.9292C57.8476 62.0404 58.3632 62.0238 58.8504 61.881C59.3376 61.7381 59.7804 61.4736 60.1373 61.1125C60.4941 60.7513 60.7532 60.3053 60.8901 59.8164C61.0271 59.3275 61.0375 58.8118 60.9202 58.3178C60.803 57.8238 60.562 57.3677 60.22 56.9925C59.8779 56.6173 59.446 56.3353 58.965 56.173V56.173ZM4.99997 60C4.80219 60 4.60885 59.9413 4.4444 59.8315C4.27995 59.7216 4.15178 59.5654 4.07609 59.3827C4.00041 59.1999 3.9806 58.9989 4.01919 58.8049C4.05777 58.6109 4.15302 58.4327 4.29287 58.2929C4.43272 58.153 4.6109 58.0578 4.80488 58.0192C4.99886 57.9806 5.19993 58.0004 5.38266 58.0761C5.56538 58.1518 5.72156 58.28 5.83144 58.4444C5.94133 58.6089 5.99997 58.8022 5.99997 59C5.99997 59.2652 5.89462 59.5196 5.70708 59.7071C5.51954 59.8946 5.26519 60 4.99997 60ZM21 60C20.8022 60 20.6089 59.9413 20.4444 59.8315C20.28 59.7216 20.1518 59.5654 20.0761 59.3827C20.0004 59.1999 19.9806 58.9989 20.0192 58.8049C20.0578 58.6109 20.153 58.4327 20.2929 58.2929C20.4327 58.153 20.6109 58.0578 20.8049 58.0192C20.9989 57.9806 21.1999 58.0004 21.3827 58.0761C21.5654 58.1518 21.7216 58.28 21.8314 58.4444C21.9413 58.6089 22 58.8022 22 59C22 59.2652 21.8946 59.5196 21.7071 59.7071C21.5195 59.8946 21.2652 60 21 60ZM38 29.177C37.9998 28.1531 38.3033 27.1521 38.8721 26.3007C39.4408 25.4493 40.2494 24.7857 41.1954 24.3939C42.1414 24.0021 43.1823 23.8997 44.1866 24.0996C45.1908 24.2995 46.1132 24.7928 46.837 25.517L48.293 26.972C48.4805 27.1595 48.7348 27.2648 49 27.2648C49.2651 27.2648 49.5194 27.1595 49.707 26.972L51.163 25.517C51.6436 25.0364 52.2142 24.6551 52.8422 24.395C53.4702 24.1348 54.1433 24.001 54.823 24.001C55.5027 24.001 56.1758 24.1348 56.8038 24.395C57.4317 24.6551 58.0023 25.0364 58.483 25.517C58.9636 25.9976 59.3449 26.5682 59.605 27.1962C59.8651 27.8242 59.999 28.4973 59.999 29.177C59.999 29.8567 59.8651 30.5298 59.605 31.1578C59.3449 31.7858 58.9636 32.3564 58.483 32.837L49 42.321L39.517 32.837C39.0344 32.3577 38.6518 31.7874 38.3914 31.1591C38.131 30.5308 37.998 29.8571 38 29.177V29.177ZM49 52C49.1978 52 49.3911 52.0586 49.5555 52.1685C49.72 52.2784 49.8482 52.4346 49.9239 52.6173C49.9995 52.8 50.0193 53.0011 49.9808 53.1951C49.9422 53.3891 49.8469 53.5672 49.7071 53.7071C49.5672 53.8469 49.389 53.9422 49.1951 53.9808C49.0011 54.0194 48.8 53.9996 48.6173 53.9239C48.4346 53.8482 48.2784 53.72 48.1685 53.5556C48.0586 53.3911 48 53.1978 48 53C48 52.7348 48.1053 52.4804 48.2929 52.2929C48.4804 52.1053 48.7348 52 49 52ZM43 44C43.1646 44 43.3266 43.9594 43.4718 43.8818C43.6169 43.8042 43.7406 43.6919 43.832 43.555L45.261 41.411L48 44.149V50.184C47.5817 50.3334 47.2019 50.5738 46.8878 50.8878C46.5738 51.2019 46.3334 51.5817 46.184 52H36.277L32.225 49.569L33.48 48H39C39.2652 48 39.5195 47.8946 39.7071 47.7071C39.8946 47.5196 40 47.2652 40 47V44H43ZM24 32.574C22.0403 33.142 19.9596 33.142 18 32.574V29H24V32.574ZM36 20H34V16H36V20ZM21 3.99999C22.5537 4.00095 24.0896 4.33212 25.5057 4.97156C26.9218 5.61099 28.1858 6.54408 29.214 7.70899L27.5 9.99999H14.5L12.786 7.70899C13.8142 6.54408 15.0782 5.61099 16.4943 4.97156C17.9104 4.33212 19.4462 4.00095 21 3.99999V3.99999ZM5.99997 20V16H7.99997V20H5.99997ZM11.67 27.8L13.535 25H15C15.2652 25 15.5195 24.8946 15.7071 24.7071C15.8946 24.5196 16 24.2652 16 24C16 23.7348 15.8946 23.4804 15.7071 23.2929C15.5195 23.1053 15.2652 23 15 23H13C12.8354 23 12.6733 23.0406 12.5282 23.1182C12.3831 23.1958 12.2593 23.3081 12.168 23.445L10.658 25.711C10.2254 24.5214 10.0028 23.2658 9.99997 22V15C10.0019 13.0275 10.5378 11.0924 11.551 9.39999L13.2 11.6C13.2931 11.7242 13.4139 11.825 13.5528 11.8944C13.6916 11.9638 13.8447 12 14 12H28C28.1552 12 28.3083 11.9638 28.4472 11.8944C28.586 11.825 28.7068 11.7242 28.8 11.6L30.448 9.39999C31.4615 11.0923 31.9978 13.0274 32 15V22C31.9972 23.2658 31.7745 24.5214 31.342 25.711L29.832 23.445C29.7406 23.3081 29.6169 23.1958 29.4718 23.1182C29.3266 23.0406 29.1646 23 29 23H27C26.7348 23 26.4804 23.1053 26.2929 23.2929C26.1053 23.4804 26 23.7348 26 24C26 24.2652 26.1053 24.5196 26.2929 24.7071C26.4804 24.8946 26.7348 25 27 25H28.465L30.33 27.8C29.2733 29.4955 27.777 30.873 26 31.786V28C26 27.7348 25.8946 27.4804 25.7071 27.2929C25.5195 27.1053 25.2652 27 25 27H17C16.7348 27 16.4804 27.1053 16.2929 27.2929C16.1053 27.4804 16 27.7348 16 28V31.786C14.223 30.873 12.7266 29.4955 11.67 27.8V27.8ZM21 35C22.7165 35.0018 24.4162 34.6619 26 34V36.7L24.465 39H17.535L16 36.7V34C17.5837 34.6619 19.2835 35.0018 21 35V35ZM9.78097 46.375C9.68724 46.2579 9.56838 46.1634 9.43319 46.0985C9.298 46.0336 9.14994 45.9999 8.99997 46H3.99997V43C4.00156 41.6744 4.52886 40.4035 5.46619 39.4662C6.40353 38.5289 7.67438 38.0016 8.99997 38H14.465L16.165 40.555C16.2566 40.6923 16.3808 40.8048 16.5265 40.8825C16.6722 40.9601 16.8349 41.0005 17 41H25C25.1646 41 25.3266 40.9594 25.4718 40.8818C25.6169 40.8042 25.7406 40.6919 25.832 40.555L27.535 38H33C34.1522 38.0014 35.2687 38.4001 36.1612 39.1287C37.0538 39.8573 37.6679 40.8714 37.9 42H31.816C31.5812 41.3333 31.118 40.7712 30.5084 40.4133C29.8989 40.0555 29.1824 39.9248 28.4858 40.0446C27.7892 40.1644 27.1575 40.5268 26.7025 41.0677C26.2475 41.6087 25.9986 42.2932 26 43H14C13.7348 43 13.4804 43.1053 13.2929 43.2929C13.1053 43.4804 13 43.7348 13 44V48C13 48.2652 13.1053 48.5196 13.2929 48.7071C13.4804 48.8946 13.7348 49 14 49H28C28.2652 49 28.5195 48.8946 28.7071 48.7071C28.8946 48.5196 29 48.2652 29 48V46C29.6182 45.9974 30.2206 45.8039 30.7247 45.4459C31.2287 45.0879 31.6099 44.5829 31.816 44H38V46H33C32.85 45.9999 32.7019 46.0336 32.5668 46.0985C32.4316 46.1634 32.3127 46.2579 32.219 46.375L28.52 51H13.48L9.78097 46.375ZM27 45.22V47H15V45H26.78C26.85 45.077 26.923 45.15 27 45.22ZM28 43C28 42.8022 28.0586 42.6089 28.1685 42.4444C28.2784 42.28 28.4346 42.1518 28.6173 42.0761C28.8 42.0004 29.0011 41.9806 29.1951 42.0192C29.389 42.0578 29.5672 42.153 29.7071 42.2929C29.8469 42.4327 29.9422 42.6109 29.9808 42.8049C30.0193 42.9989 29.9995 43.1999 29.9239 43.3827C29.8482 43.5654 29.72 43.7216 29.5555 43.8315C29.3911 43.9413 29.1978 44 29 44C28.7348 44 28.4804 43.8946 28.2929 43.7071C28.1053 43.5196 28 43.2652 28 43ZM28.172 53H29C29.1499 53 29.298 52.9664 29.4332 52.9015C29.5684 52.8365 29.6872 52.7421 29.781 52.625L30.965 51.145L35.485 53.857C35.6405 53.9505 35.8185 53.9999 36 54H46.184C46.3518 54.4774 46.6379 54.9046 47.0155 55.2414C47.3932 55.5783 47.8502 55.8138 48.3436 55.9261C48.8371 56.0384 49.351 56.0237 49.8372 55.8835C50.3235 55.7432 50.7662 55.4819 51.1241 55.1241C51.4819 54.7662 51.7432 54.3235 51.8835 53.8372C52.0237 53.351 52.0384 52.8371 51.9261 52.3436C51.8138 51.8502 51.5782 51.3933 51.2414 51.0156C50.9045 50.6379 50.4774 50.3518 50 50.184V44.149L54.021 40.128L57 41.618V56C57.0059 56.0587 57.0177 56.1166 57.035 56.173C56.6091 56.3191 56.2216 56.5592 55.9012 56.8755C55.5808 57.1917 55.3356 57.5761 55.184 58H35.315L28.172 53ZM58 60C57.8022 60 57.6089 59.9413 57.4444 59.8315C57.28 59.7216 57.1518 59.5654 57.0761 59.3827C57.0004 59.1999 56.9806 58.9989 57.0192 58.8049C57.0578 58.6109 57.153 58.4327 57.2929 58.2929C57.4327 58.153 57.6109 58.0578 57.8049 58.0192C57.9989 57.9806 58.1999 58.0004 58.3827 58.0761C58.5654 58.1518 58.7216 58.28 58.8314 58.4444C58.9413 58.6089 59 58.8022 59 59C59 59.2652 58.8946 59.5196 58.7071 59.7071C58.5195 59.8946 58.2652 60 58 60Z" fill="#3B8686"/>
<path d="M58 10H53C52.7348 10 52.4804 10.1054 52.2929 10.2929C52.1054 10.4804 52 10.7348 52 11C52 11.2652 52.1054 11.5196 52.2929 11.7071C52.4804 11.8946 52.7348 12 53 12H58C58.2652 12 58.5196 11.8946 58.7071 11.7071C58.8946 11.5196 59 11.2652 59 11C59 10.7348 58.8946 10.4804 58.7071 10.2929C58.5196 10.1054 58.2652 10 58 10Z" fill="#3B8686"/>
<path d="M58 14H50C49.7348 14 49.4804 14.1054 49.2929 14.2929C49.1054 14.4804 49 14.7348 49 15C49 15.2652 49.1054 15.5196 49.2929 15.7071C49.4804 15.8946 49.7348 16 50 16H58C58.2652 16 58.5196 15.8946 58.7071 15.7071C58.8946 15.5196 59 15.2652 59 15C59 14.7348 58.8946 14.4804 58.7071 14.2929C58.5196 14.1054 58.2652 14 58 14Z" fill="#3B8686"/>
<path d="M58 18H54C53.7348 18 53.4804 18.1054 53.2929 18.2929C53.1054 18.4804 53 18.7348 53 19C53 19.2652 53.1054 19.5196 53.2929 19.7071C53.4804 19.8946 53.7348 20 54 20H58C58.2652 20 58.5196 19.8946 58.7071 19.7071C58.8946 19.5196 59 19.2652 59 19C59 18.7348 58.8946 18.4804 58.7071 18.2929C58.5196 18.1054 58.2652 18 58 18Z" fill="#3B8686"/>
<path d="M42 8H58C58.2652 8 58.5196 7.89464 58.7071 7.70711C58.8946 7.51957 59 7.26522 59 7V3C59 2.73478 58.8946 2.48043 58.7071 2.29289C58.5196 2.10536 58.2652 2 58 2H42C41.7348 2 41.4804 2.10536 41.2929 2.29289C41.1054 2.48043 41 2.73478 41 3V7C41 7.26522 41.1054 7.51957 41.2929 7.70711C41.4804 7.89464 41.7348 8 42 8ZM57 6H55V4H57V6ZM53 6H51V4H53V6ZM49 6H47V4H49V6ZM43 4H45V6H43V4Z" fill="#3B8686"/>
</svg>
