<?xml version="1.0" encoding="utf-8"?>
<!-- Generator: Adobe Illustrator 26.0.2, SVG Export Plug-In . SVG Version: 6.00 Build 0)  -->
<svg version="1.1" id="Layer_3" xmlns="http://www.w3.org/2000/svg" xmlns:xlink="http://www.w3.org/1999/xlink" x="0px" y="0px"
	 viewBox="0 0 64 64" style="enable-background:new 0 0 64 64;" xml:space="preserve">
<g>
	<path style="fill:#C7E2FB;" d="M36,46c-3.866,0-7,3.134-7,7v3c0,1.105-0.895,2-2,2s-2-0.895-2-2V36.977
		c-1.208-0.913-2-2.347-2-3.977c0,1.63-0.792,3.065-2,3.977V56c0,3.314,2.686,6,6,6s6-2.686,6-6v-3c0-1.657,1.343-3,3-3h9v-4H36z"/>
	<path style="fill:#F5B95B;" d="M54,54h-4c-3.314,0-6-2.686-6-6v0c0-3.314,2.686-6,6-6h4V54z"/>
	<path style="fill:#C7E2FB;" d="M58.5,43H54v3h4.5c0.828,0,1.5-0.672,1.5-1.5S59.328,43,58.5,43z"/>
	<path style="fill:#C7E2FB;" d="M58.5,50H54v3h4.5c0.828,0,1.5-0.672,1.5-1.5S59.328,50,58.5,50z"/>
	<path style="fill:#C66B60;" d="M23,7c0-2.761-2.239-5-5-5s-5,2.239-5,5c-2.761,0-5,2.239-5,5c0,0.545,0.109,1.061,0.271,1.552
		C5.761,14.616,4,17.102,4,20c0,2.898,1.761,5.384,4.271,6.448C8.109,26.939,8,27.455,8,28c0,2.761,2.239,5,5,5c0,2.761,2.239,5,5,5
		s5-2.239,5-5V7z"/>
	<path style="fill:#E47C6F;" d="M23,7c0-2.761,2.239-5,5-5s5,2.239,5,5c2.761,0,5,2.239,5,5c0,0.545-0.109,1.061-0.271,1.552
		C40.239,14.616,42,17.102,42,20c0,2.898-1.761,5.384-4.271,6.448C37.891,26.939,38,27.455,38,28c0,2.761-2.239,5-5,5
		c0,2.761-2.239,5-5,5s-5-2.239-5-5V7z"/>
	<g>
		<path style="fill:#C66B60;" d="M28,13c-0.552,0-1-0.447-1-1s0.448-1,1-1c2.206,0,4-1.794,4-4c0-0.552,0.448-1,1-1s1,0.448,1,1
			C34,10.309,31.309,13,28,13z"/>
	</g>
	<g>
		<path style="fill:#E47C6F;" d="M13,34c-0.552,0-1-0.447-1-1s0.448-1,1-1c2.206,0,4-1.794,4-4c0-0.553,0.448-1,1-1s1,0.447,1,1
			C19,31.309,16.309,34,13,34z"/>
	</g>
	<g>
		<path style="fill:#C66B60;" d="M33,34h-1c-2.757,0-5-2.243-5-5c0-0.553,0.448-1,1-1s1,0.447,1,1c0,1.654,1.346,3,3,3h1
			c0.552,0,1,0.447,1,1S33.552,34,33,34z"/>
	</g>
	<path style="fill:#E47C6F;" d="M22,16c-2.757,0-5,2.243-5,5c0,0.553,0.448,1,1,1s1-0.447,1-1c0-1.654,1.346-3,3-3h1v-2H22z"/>
	<g>
		<path style="fill:#E47C6F;" d="M18,12c-0.552,0-1-0.447-1-1c0-1.654-1.346-3-3-3h-1c-0.552,0-1-0.448-1-1s0.448-1,1-1h1
			c2.757,0,5,2.243,5,5C19,11.553,18.552,12,18,12z"/>
	</g>
	<path style="fill:#F9D18F;" d="M45.447,44.099c1.159,4.594,4.479,8.063,8.553,8.759V42h-4C48.177,42,46.547,42.816,45.447,44.099z"
		/>
</g>
</svg>
