<?xml version="1.0" encoding="iso-8859-1"?>
<!-- Generator: Adobe Illustrator 23.1.1, SVG Export Plug-In . SVG Version: 6.00 Build 0)  -->
<svg version="1.1" id="_x31_-outline-expand" xmlns="http://www.w3.org/2000/svg" xmlns:xlink="http://www.w3.org/1999/xlink"
	 x="0px" y="0px" viewBox="0 0 64 64" style="enable-background:new 0 0 64 64;" xml:space="preserve">
<path style="fill:#F2DAAE;" d="M28,16c0,7.18-5.82,13-13,13C7.82,29,2,23.18,2,16C2,8.82,7.82,3,15,3C22.18,3,28,8.82,28,16"/>
<path style="fill:#D36767;" d="M20,16c0,2.762-2.239,5-5,5c-2.761,0-5-2.238-5-5c0-2.762,2.239-5,5-5C17.761,11,20,13.238,20,16"/>
<rect x="51.172" y="5.172" transform="matrix(0.7071 -0.7071 0.7071 0.7071 10.1594 40.5269)" style="fill:#4F5559;" width="5.657" height="5.657"/>
<path style="fill:#42A5B2;" d="M49,17l11,11v29c0,2.209-1.791,4-4,4H26v-3c0-1.104,0.896-2,2-2h27V29l-9-9L49,17z"/>
<rect x="34" y="29" style="fill:#42A5B2;" width="16" height="10"/>
<polygon style="fill:#62C4C3;" points="36,29 36,20 49,7 55,13 48,20 48,29 "/>
<rect x="40" y="39" style="fill:#EFBC2E;" width="4" height="4"/>
<rect x="36" y="52" style="fill:#EFBC2E;" width="12" height="4"/>
<path style="fill:#EFBC2E;" d="M62,37c0,2.209-1.791,4-4,4c-2.209,0-4-1.791-4-4c0-2.209,1.791-4,4-4C60.209,33,62,34.791,62,37"/>
<path style="fill:#3A4249;" d="M22.428,19.134l-1.81-1.045C20.86,17.437,21,16.735,21,16c0-0.735-0.14-1.437-0.382-2.089l1.81-1.045
	l0.5,0.866l1.733-1l-2-3.464l-1.733,1l0.5,0.866l-1.807,1.044c-0.899-1.085-2.174-1.843-3.621-2.088V8h1V6h-4v2h1v2.09
	c-1.447,0.245-2.722,1.003-3.621,2.088l-1.807-1.044l0.5-0.866l-1.733-1l-2,3.464l1.733,1l0.5-0.866l1.81,1.045
	C9.14,14.563,9,15.265,9,16c0,0.735,0.14,1.437,0.382,2.089l-1.81,1.045l-0.5-0.866l-1.733,1l2,3.464l1.733-1l-0.5-0.866
	l1.807-1.044c0.899,1.085,2.174,1.843,3.621,2.088V24h-1v2h4v-2h-1v-2.09c1.447-0.245,2.722-1.003,3.621-2.088l1.807,1.044
	l-0.5,0.866l1.733,1l2-3.464l-1.733-1L22.428,19.134z M15,20c-2.206,0-4-1.794-4-4c0-2.206,1.794-4,4-4c2.206,0,4,1.794,4,4
	C19,18.206,17.206,20,15,20"/>
<path style="fill:#3A4249;" d="M15,2C7.28,2,1,8.28,1,16c0,7.72,6.28,14,14,14s14-6.28,14-14C29,8.28,22.72,2,15,2 M15,28
	C8.383,28,3,22.617,3,16C3,9.383,8.383,4,15,4c6.617,0,12,5.383,12,12C27,22.617,21.617,28,15,28"/>
<path style="fill:#3A4249;" d="M63,37c0-1.627-0.793-3.061-2-3.975V28c0-0.266-0.105-0.52-0.293-0.707L51.414,18l4.293-4.293
	c0.391-0.391,0.391-1.023,0-1.414L55.414,12L58,9.414l1.293,1.293l1.414-1.414l-8-8l-1.414,1.414L52.586,4L50,6.586l-0.293-0.293
	c-0.391-0.391-1.023-0.391-1.414,0l-13,13C35.105,19.48,35,19.734,35,20v8h-1c-0.552,0-1,0.447-1,1v10c0,0.553,0.448,1,1,1h5v3
	c0,0.553,0.448,1,1,1h4c0.552,0,1-0.447,1-1v-3h5c0.552,0,1-0.447,1-1V29c0-0.553-0.448-1-1-1h-1v-3.586l5,5v4.617
	c-0.62,0.832-1,1.854-1,2.969c0,1.115,0.38,2.137,1,2.969V46H32v2h22v7h-5v-3c0-0.553-0.448-1-1-1H36c-0.552,0-1,0.447-1,1v3h-7
	c-1.654,0-3,1.346-3,3v3c0,0.553,0.448,1,1,1h30c2.757,0,5-2.243,5-5V40.975C62.207,40.061,63,38.627,63,37 M54,5.414L56.586,8
	L54,10.586L51.414,8L54,5.414z M43,42h-2v-2h2V42z M49,38H35v-8h14V38z M37,28v-7.586l12-12L53.586,13l-6.293,6.293
	C47.105,19.48,47,19.734,47,20v8H37z M49,21.586v-1.172l1-1l9,9v3.688C58.677,32.035,58.342,32,58,32c-0.712,0-1.386,0.154-2,0.424
	V29c0-0.266-0.105-0.52-0.293-0.707L49,21.586z M37,53h10v2H37V53z M59,57c0,1.654-1.346,3-3,3H27v-2c0-0.552,0.449-1,1-1h27
	c0.552,0,1-0.447,1-1V41.576C56.614,41.846,57.288,42,58,42c0.342,0,0.677-0.035,1-0.102V57z M58,40c-1.654,0-3-1.346-3-3
	c0-1.654,1.346-3,3-3c1.654,0,3,1.346,3,3C61,38.654,59.654,40,58,40"/>
<rect x="13" y="32" style="fill:#3A4249;" width="2" height="2"/>
<rect x="13" y="36" style="fill:#3A4249;" width="2" height="2"/>
<rect x="13" y="40" style="fill:#3A4249;" width="2" height="2"/>
<rect x="13" y="44" style="fill:#3A4249;" width="2" height="2"/>
<rect x="13" y="48" style="fill:#3A4249;" width="2" height="2"/>
<rect x="13" y="52" style="fill:#3A4249;" width="2" height="2"/>
<rect x="13" y="56" style="fill:#3A4249;" width="2" height="2"/>
<rect x="17" y="56" style="fill:#3A4249;" width="2" height="2"/>
<rect x="21" y="56" style="fill:#3A4249;" width="2" height="2"/>
<rect x="30" y="10" style="fill:#3A4249;" width="2" height="2"/>
<rect x="34" y="10" style="fill:#3A4249;" width="2" height="2"/>
<rect x="38" y="10" style="fill:#3A4249;" width="2" height="2"/>
</svg>
